
<svg class="animated" id="freepik_stories-address" xmlns="http://www.w3.org/2000/svg" xmlns:xlink="http://www.w3.org/1999/xlink" viewBox="0 0 500 500" version="1.1" xmlns:svgjs="http://svgjs.com/svgjs"><g id="freepik--background-simple--inject-1--inject-81" class="animable" style="transform-origin: 248.033px 231.534px;"><path d="M436.31,271.6c-6.24-4.82-12.61-9.49-16.36-16.46-19-35.27,20.55-76.53-1.4-114.75C407.41,121,385.44,106.81,364,114.87c-22.85,8.6-44.42,17.58-69,10.47-43-12.46-65.33-70.76-112.17-69.78-38.45.8-81.24,41.3-59,83.33,16.85,31.8,6.32,58.12-32.65,63.6S35.45,254,47,273.77s33.69,40.57,12.63,49.34-28.43,37.28-26.32,57,6.31,27.41,6.31,27.41H443.84s17.05-21.93,19.15-72.36c.92-21.86-3.61-43.27-20.13-58.22C440.77,275.08,438.55,273.33,436.31,271.6Z" style="fill: rgb(146, 227, 169); transform-origin: 248.033px 231.534px;" id="elyhtkwzvz5ij" class="animable"></path><g id="elzypxpq47o57"><path d="M436.31,271.6c-6.24-4.82-12.61-9.49-16.36-16.46-19-35.27,20.55-76.53-1.4-114.75C407.41,121,385.44,106.81,364,114.87c-22.85,8.6-44.42,17.58-69,10.47-43-12.46-65.33-70.76-112.17-69.78-38.45.8-81.24,41.3-59,83.33,16.85,31.8,6.32,58.12-32.65,63.6S35.45,254,47,273.77s33.69,40.57,12.63,49.34-28.43,37.28-26.32,57,6.31,27.41,6.31,27.41H443.84s17.05-21.93,19.15-72.36c.92-21.86-3.61-43.27-20.13-58.22C440.77,275.08,438.55,273.33,436.31,271.6Z" style="fill: rgb(255, 255, 255); opacity: 0.7; transform-origin: 248.033px 231.534px;" class="animable"></path></g></g><g id="freepik--Shadow--inject-1--inject-81" class="animable" style="transform-origin: 245.56px 432px;"><ellipse cx="245.56" cy="432" rx="76.5" ry="8" style="fill: rgb(146, 227, 169); transform-origin: 245.56px 432px;" id="el7se0atw0vh2" class="animable"></ellipse><g id="el5unqwii7kse"><ellipse cx="245.56" cy="432" rx="76.5" ry="8" style="fill: rgb(255, 255, 255); opacity: 0.5; transform-origin: 245.56px 432px;" class="animable"></ellipse></g></g><g id="freepik--Buildings--inject-1--inject-81" class="animable" style="transform-origin: 254.63px 320.66px;"><polygon points="418.43 365.9 418.43 353.69 404.81 353.69 404.81 330 385.24 330 385.24 233.78 366.52 233.78 366.52 291.94 349.5 291.94 349.5 271.12 326.53 271.12 326.53 324.97 317.17 324.97 317.17 342.2 295.05 342.2 295.05 335.74 301.85 335.74 301.85 332.15 273.77 332.15 273.77 336.46 277.18 336.46 277.18 355.13 262.71 355.13 262.71 319.94 211.66 319.94 211.66 345.07 175.06 345.07 175.06 326.4 161.45 326.4 161.45 347.23 132.52 347.23 132.52 309.17 120.61 309.17 120.61 296.25 99.33 296.25 99.33 355.13 78.06 355.13 78.06 368.05 64.45 368.05 64.45 407.54 444.81 407.54 444.81 365.9 418.43 365.9" style="fill: none; stroke: rgb(46, 53, 58); stroke-miterlimit: 10; transform-origin: 254.63px 320.66px;" id="elr0pxts8nhto" class="animable"></polygon><rect x="103.1" y="309" width="4.6" height="4.6" style="fill: rgb(46, 53, 58); transform-origin: 105.4px 311.3px;" id="elju96ix2w1w" class="animable"></rect><rect x="112.68" y="309" width="4.6" height="4.6" style="fill: rgb(46, 53, 58); transform-origin: 114.98px 311.3px;" id="elw455p6zl98" class="animable"></rect><rect x="103.1" y="318.59" width="4.6" height="4.6" style="fill: rgb(46, 53, 58); transform-origin: 105.4px 320.89px;" id="elkcxfxrpjlr9" class="animable"></rect><rect x="112.68" y="318.59" width="4.6" height="4.6" style="fill: rgb(46, 53, 58); transform-origin: 114.98px 320.89px;" id="eluc3w3ccelzn" class="animable"></rect><rect x="123.03" y="318.59" width="4.6" height="4.6" style="fill: rgb(46, 53, 58); transform-origin: 125.33px 320.89px;" id="elc6q2icb0ot" class="animable"></rect><rect x="123.03" y="328.17" width="4.6" height="4.6" style="fill: rgb(46, 53, 58); transform-origin: 125.33px 330.47px;" id="elylv8taaja2" class="animable"></rect><rect x="123.03" y="337.76" width="4.6" height="4.6" style="fill: rgb(46, 53, 58); transform-origin: 125.33px 340.06px;" id="el5dcj4l7ko4e" class="animable"></rect><rect x="123.03" y="347.34" width="4.6" height="4.6" style="fill: rgb(46, 53, 58); transform-origin: 125.33px 349.64px;" id="elxjnxbr9252e" class="animable"></rect><rect x="123.03" y="356.93" width="4.6" height="4.6" style="fill: rgb(46, 53, 58); transform-origin: 125.33px 359.23px;" id="elxoo1mdt0xi" class="animable"></rect><rect x="123.03" y="366.52" width="4.6" height="4.6" style="fill: rgb(46, 53, 58); transform-origin: 125.33px 368.82px;" id="ele6fslon9rnv" class="animable"></rect><rect x="103.1" y="328.17" width="4.6" height="4.6" style="fill: rgb(46, 53, 58); transform-origin: 105.4px 330.47px;" id="elktn7010y6w" class="animable"></rect><rect x="112.68" y="328.17" width="4.6" height="4.6" style="fill: rgb(46, 53, 58); transform-origin: 114.98px 330.47px;" id="el22kelffubyrh" class="animable"></rect><rect x="103.1" y="337.76" width="4.6" height="4.6" style="fill: rgb(46, 53, 58); transform-origin: 105.4px 340.06px;" id="elndj2c262dxf" class="animable"></rect><rect x="112.68" y="337.76" width="4.6" height="4.6" style="fill: rgb(46, 53, 58); transform-origin: 114.98px 340.06px;" id="el6411q4rbwem" class="animable"></rect><rect x="103.1" y="347.34" width="4.6" height="4.6" style="fill: rgb(46, 53, 58); transform-origin: 105.4px 349.64px;" id="elp0pc8cg1g5" class="animable"></rect><rect x="112.68" y="347.34" width="4.6" height="4.6" style="fill: rgb(46, 53, 58); transform-origin: 114.98px 349.64px;" id="elvoskfdf6l1i" class="animable"></rect><rect x="103.1" y="356.93" width="4.6" height="4.6" style="fill: rgb(46, 53, 58); transform-origin: 105.4px 359.23px;" id="el1lwu4g3d4ld" class="animable"></rect><rect x="82.01" y="362.3" width="4.6" height="4.6" style="fill: rgb(46, 53, 58); transform-origin: 84.31px 364.6px;" id="elthkwsf3th4" class="animable"></rect><rect x="148.34" y="351.94" width="4.6" height="4.6" style="fill: rgb(46, 53, 58); transform-origin: 150.64px 354.24px;" id="elk78qhxdoe0h" class="animable"></rect><rect x="157.54" y="351.94" width="4.6" height="4.6" style="fill: rgb(46, 53, 58); transform-origin: 159.84px 354.24px;" id="el6bxk2byt97u" class="animable"></rect><rect x="369.58" y="239.21" width="4.6" height="4.6" style="fill: rgb(46, 53, 58); transform-origin: 371.88px 241.51px;" id="el2slw77ul67d" class="animable"></rect><rect x="375.33" y="239.21" width="4.6" height="4.6" style="fill: rgb(46, 53, 58); transform-origin: 377.63px 241.51px;" id="eltewd7kkmglk" class="animable"></rect><rect x="369.58" y="248.8" width="4.6" height="4.6" style="fill: rgb(46, 53, 58); transform-origin: 371.88px 251.1px;" id="el7kliuuw9w3d" class="animable"></rect><rect x="375.33" y="248.8" width="4.6" height="4.6" style="fill: rgb(46, 53, 58); transform-origin: 377.63px 251.1px;" id="elv84ltdb3ngg" class="animable"></rect><rect x="369.58" y="258.39" width="4.6" height="4.6" style="fill: rgb(46, 53, 58); transform-origin: 371.88px 260.69px;" id="elqlxjaxk6v5" class="animable"></rect><rect x="375.33" y="258.39" width="4.6" height="4.6" style="fill: rgb(46, 53, 58); transform-origin: 377.63px 260.69px;" id="elh1cpdiym6oo" class="animable"></rect><rect x="369.58" y="267.97" width="4.6" height="4.6" style="fill: rgb(46, 53, 58); transform-origin: 371.88px 270.27px;" id="el32mwd43n4ln" class="animable"></rect><rect x="375.33" y="267.97" width="4.6" height="4.6" style="fill: rgb(46, 53, 58); transform-origin: 377.63px 270.27px;" id="elyeyehe5h7w" class="animable"></rect><rect x="369.58" y="277.56" width="4.6" height="4.6" style="fill: rgb(46, 53, 58); transform-origin: 371.88px 279.86px;" id="elgd5j3karc74" class="animable"></rect><rect x="375.33" y="277.56" width="4.6" height="4.6" style="fill: rgb(46, 53, 58); transform-origin: 377.63px 279.86px;" id="el1v36kq22m2d" class="animable"></rect><rect x="369.58" y="287.14" width="4.6" height="4.6" style="fill: rgb(46, 53, 58); transform-origin: 371.88px 289.44px;" id="elxxjvomntmv" class="animable"></rect><rect x="375.33" y="287.14" width="4.6" height="4.6" style="fill: rgb(46, 53, 58); transform-origin: 377.63px 289.44px;" id="elbtv2tssy4vc" class="animable"></rect><rect x="369.58" y="296.73" width="4.6" height="4.6" style="fill: rgb(46, 53, 58); transform-origin: 371.88px 299.03px;" id="elgylubbjarw" class="animable"></rect><rect x="375.33" y="296.73" width="4.6" height="4.6" style="fill: rgb(46, 53, 58); transform-origin: 377.63px 299.03px;" id="elfco6i9bt0o" class="animable"></rect><rect x="369.58" y="306.32" width="4.6" height="4.6" style="fill: rgb(46, 53, 58); transform-origin: 371.88px 308.62px;" id="elfnkcviw5068" class="animable"></rect><rect x="375.33" y="306.32" width="4.6" height="4.6" style="fill: rgb(46, 53, 58); transform-origin: 377.63px 308.62px;" id="el4yil626n7bu" class="animable"></rect><rect x="369.58" y="315.9" width="4.6" height="4.6" style="fill: rgb(46, 53, 58); transform-origin: 371.88px 318.2px;" id="elrqpx5xhk17" class="animable"></rect><rect x="375.33" y="315.9" width="4.6" height="4.6" style="fill: rgb(46, 53, 58); transform-origin: 377.63px 318.2px;" id="el5yxjxjv4f5x" class="animable"></rect><rect x="330.47" y="315.9" width="4.6" height="4.6" style="fill: rgb(46, 53, 58); transform-origin: 332.77px 318.2px;" id="elxr639s4zgg" class="animable"></rect><rect x="340.44" y="315.9" width="4.6" height="4.6" style="fill: rgb(46, 53, 58); transform-origin: 342.74px 318.2px;" id="elks24x0p9r0k" class="animable"></rect><rect x="350.41" y="315.9" width="4.6" height="4.6" style="fill: rgb(46, 53, 58); transform-origin: 352.71px 318.2px;" id="elhk8d6cla5zo" class="animable"></rect><rect x="330.47" y="336.61" width="4.6" height="4.6" style="fill: rgb(46, 53, 58); transform-origin: 332.77px 338.91px;" id="el8ioygu2ldg3" class="animable"></rect><rect x="340.44" y="336.61" width="4.6" height="4.6" style="fill: rgb(46, 53, 58); transform-origin: 342.74px 338.91px;" id="eli60x5prfp9" class="animable"></rect><rect x="350.41" y="336.61" width="4.6" height="4.6" style="fill: rgb(46, 53, 58); transform-origin: 352.71px 338.91px;" id="elaxbepk89txm" class="animable"></rect><rect x="330.47" y="357.31" width="4.6" height="4.6" style="fill: rgb(46, 53, 58); transform-origin: 332.77px 359.61px;" id="el4pjw84oqd4" class="animable"></rect><rect x="340.44" y="357.31" width="4.6" height="4.6" style="fill: rgb(46, 53, 58); transform-origin: 342.74px 359.61px;" id="el5wupdzfw57c" class="animable"></rect><rect x="350.41" y="357.31" width="4.6" height="4.6" style="fill: rgb(46, 53, 58); transform-origin: 352.71px 359.61px;" id="elfwoot1jd854" class="animable"></rect><rect x="369.58" y="325.49" width="4.6" height="4.6" style="fill: rgb(46, 53, 58); transform-origin: 371.88px 327.79px;" id="eleljr99a85hw" class="animable"></rect><rect x="375.33" y="325.49" width="4.6" height="4.6" style="fill: rgb(46, 53, 58); transform-origin: 377.63px 327.79px;" id="elulvjelpsfo" class="animable"></rect><rect x="369.58" y="335.07" width="4.6" height="4.6" style="fill: rgb(46, 53, 58); transform-origin: 371.88px 337.37px;" id="elexllzp0klu8" class="animable"></rect><rect x="375.33" y="335.07" width="4.6" height="4.6" style="fill: rgb(46, 53, 58); transform-origin: 377.63px 337.37px;" id="el8x19rygmm37" class="animable"></rect><rect x="369.58" y="344.66" width="4.6" height="4.6" style="fill: rgb(46, 53, 58); transform-origin: 371.88px 346.96px;" id="elosydu4o72ea" class="animable"></rect><rect x="375.33" y="344.66" width="4.6" height="4.6" style="fill: rgb(46, 53, 58); transform-origin: 377.63px 346.96px;" id="el11px1jn8ds2s" class="animable"></rect><rect x="384.92" y="335.07" width="4.6" height="4.6" style="fill: rgb(46, 53, 58); transform-origin: 387.22px 337.37px;" id="el0g0axv9kaag5" class="animable"></rect><rect x="395.66" y="335.07" width="4.6" height="4.6" style="fill: rgb(46, 53, 58); transform-origin: 397.96px 337.37px;" id="ell9gymjg0gl" class="animable"></rect><rect x="384.92" y="344.28" width="4.6" height="4.6" style="fill: rgb(46, 53, 58); transform-origin: 387.22px 346.58px;" id="elw4cwdb1wxzf" class="animable"></rect><rect x="395.66" y="344.28" width="4.6" height="4.6" style="fill: rgb(46, 53, 58); transform-origin: 397.96px 346.58px;" id="ele7pjzxrbt29" class="animable"></rect><rect x="384.92" y="353.48" width="4.6" height="4.6" style="fill: rgb(46, 53, 58); transform-origin: 387.22px 355.78px;" id="el090loi0ujct" class="animable"></rect><rect x="395.66" y="353.48" width="4.6" height="4.6" style="fill: rgb(46, 53, 58); transform-origin: 397.96px 355.78px;" id="elkk3d7iciau" class="animable"></rect><rect x="384.92" y="362.68" width="4.6" height="4.6" style="fill: rgb(46, 53, 58); transform-origin: 387.22px 364.98px;" id="el0zfkpjau0p5c" class="animable"></rect><rect x="395.66" y="362.68" width="4.6" height="4.6" style="fill: rgb(46, 53, 58); transform-origin: 397.96px 364.98px;" id="elpeewnevlpxk" class="animable"></rect><rect x="369.58" y="354.25" width="4.6" height="4.6" style="fill: rgb(46, 53, 58); transform-origin: 371.88px 356.55px;" id="elzd74q63y8oo" class="animable"></rect><rect x="375.33" y="354.25" width="4.6" height="4.6" style="fill: rgb(46, 53, 58); transform-origin: 377.63px 356.55px;" id="elxp1e9axb2r" class="animable"></rect><rect x="369.58" y="363.83" width="4.6" height="4.6" style="fill: rgb(46, 53, 58); transform-origin: 371.88px 366.13px;" id="elpq8z927m60j" class="animable"></rect><rect x="375.33" y="363.83" width="4.6" height="4.6" style="fill: rgb(46, 53, 58); transform-origin: 377.63px 366.13px;" id="el0ymjot02dm6k" class="animable"></rect><rect x="112.68" y="356.93" width="4.6" height="4.6" style="fill: rgb(46, 53, 58); transform-origin: 114.98px 359.23px;" id="elr1h38rjewok" class="animable"></rect><rect x="103.1" y="366.52" width="4.6" height="4.6" style="fill: rgb(46, 53, 58); transform-origin: 105.4px 368.82px;" id="eluvrwqi0iupp" class="animable"></rect><rect x="112.68" y="366.52" width="4.6" height="4.6" style="fill: rgb(46, 53, 58); transform-origin: 114.98px 368.82px;" id="el8utwvfqeeo8" class="animable"></rect><rect x="103.1" y="376.1" width="4.6" height="4.6" style="fill: rgb(46, 53, 58); transform-origin: 105.4px 378.4px;" id="elzjicwzg7rhh" class="animable"></rect><rect x="112.68" y="376.1" width="4.6" height="4.6" style="fill: rgb(46, 53, 58); transform-origin: 114.98px 378.4px;" id="el4disfdo2ke5" class="animable"></rect><rect x="103.1" y="385.69" width="4.6" height="4.6" style="fill: rgb(46, 53, 58); transform-origin: 105.4px 387.99px;" id="elvubclphnh99" class="animable"></rect><rect x="112.68" y="385.69" width="4.6" height="4.6" style="fill: rgb(46, 53, 58); transform-origin: 114.98px 387.99px;" id="el0rrtl8ta7p6" class="animable"></rect><polyline points="359.61 388.57 359.61 407.54 321.27 407.54 321.27 369.82 359.61 369.82 359.61 385.19" style="fill: none; stroke: rgb(46, 53, 58); stroke-miterlimit: 10; transform-origin: 340.44px 388.68px;" id="elh32pe9z5wx6" class="animable"></polyline><polyline points="430.17 401.81 430.17 407.54 391.82 407.54 391.82 387.6 399.74 387.6" style="fill: none; stroke: rgb(46, 53, 58); stroke-miterlimit: 10; transform-origin: 410.995px 397.57px;" id="ela0dkmaxzebl" class="animable"></polyline><polyline points="404.41 387.6 430.17 387.6 430.17 398.7" style="fill: none; stroke: rgb(46, 53, 58); stroke-miterlimit: 10; transform-origin: 417.29px 393.15px;" id="elozh73rjphz" class="animable"></polyline><polyline points="147.56 387.6 174.8 387.6 174.8 407.54 136.45 407.54 136.45 387.6 143.92 387.6" style="fill: none; stroke: rgb(46, 53, 58); stroke-miterlimit: 10; transform-origin: 155.625px 397.57px;" id="elo977gak2u8" class="animable"></polyline><polyline points="87.57 387.6 91.21 387.6 91.21 407.54 77.02 407.54 77.02 387.6 84.71 387.6" style="fill: none; stroke: rgb(46, 53, 58); stroke-miterlimit: 10; transform-origin: 84.115px 397.57px;" id="elh6ibdfiana" class="animable"></polyline><rect x="337.37" y="369.82" width="6.13" height="37.72" style="fill: none; stroke: rgb(46, 53, 58); stroke-miterlimit: 10; transform-origin: 340.435px 388.68px;" id="el2z4fqk8i155" class="animable"></rect><polyline points="295.85 374.95 289.83 374.95 289.83 364.98 310.15 364.98 310.15 374.95 301.31 374.95" style="fill: none; stroke: rgb(46, 53, 58); stroke-miterlimit: 10; transform-origin: 299.99px 369.965px;" id="eljdguhlrdrfa" class="animable"></polyline><rect x="164.83" y="358.08" width="23.39" height="8.44" style="fill: none; stroke: rgb(46, 53, 58); stroke-miterlimit: 10; transform-origin: 176.525px 362.3px;" id="elcbci0fu2e3" class="animable"></rect><rect x="175.95" y="358.08" width="2.3" height="49.46" style="fill: none; stroke: rgb(46, 53, 58); stroke-miterlimit: 10; transform-origin: 177.1px 382.81px;" id="elmmwua21afrj" class="animable"></rect></g><g id="freepik--Location--inject-1--inject-81" class="animable" style="transform-origin: 245px 230.13px;"><path d="M250,57.63a129,129,0,0,0-129,129c0,64.35,119,216,119,216h10s129-144.76,129-216A129,129,0,0,0,250,57.63Zm0,192a63,63,0,1,1,63-63A63,63,0,0,1,250,249.63Z" style="fill: rgb(46, 53, 58); stroke: rgb(46, 53, 58); stroke-linecap: round; stroke-linejoin: round; transform-origin: 250px 230.13px;" id="el63fwqijen2" class="animable"></path><path d="M240,57.63a129,129,0,0,0-129,129c0,71.24,129,216,129,216s129-144.76,129-216A129,129,0,0,0,240,57.63Zm0,192a63,63,0,1,1,63-63A63,63,0,0,1,240,249.63Z" style="fill: rgb(146, 227, 169); stroke: rgb(46, 53, 58); stroke-linecap: round; stroke-linejoin: round; transform-origin: 240px 230.13px;" id="el4jn2qe034f" class="animable"></path></g><g id="freepik--Character--inject-1--inject-81" class="animable" style="transform-origin: 250px 289.964px;"><polygon points="199.43 265.25 213.68 241 213.93 249.75 205.43 266.75 199.43 265.25" style="fill: rgb(255, 255, 255); stroke: rgb(46, 53, 58); stroke-linecap: round; stroke-linejoin: round; transform-origin: 206.68px 253.875px;" id="el3p1ihgd1w2a" class="animable"></polygon><path d="M213.93,347.17a25.86,25.86,0,0,1-5.36,11.51c-4.55,5.63-10.71,16.61-11,27.05s-12.33,39.33-11,41.47,13.12,5.09,17.67,5.09c2.39,0,6.35.92,7.93-1.41.09-.13-9.35-5-10-5.47s-5.91-4.17-5.74-4.64c0,0,12.34-33.44,18.5-42s10.71-15,12.58-20.35S231.06,348,231.06,348Z" style="fill: rgb(255, 255, 255); transform-origin: 208.764px 389.82px;" id="elwui9o4a9jk" class="animable"></path><g style="clip-path: url(&quot;#freepik--clip-path--inject-1--inject-81&quot;); transform-origin: 220.82px 353.805px;" id="elvqkeqizy4h" class="animable"><path d="M210.58,355.82a66.29,66.29,0,0,0,16.2,4.61c.3-.69.57-1.36.8-2,1.88-5.36,3.48-10.45,3.48-10.45l-17.13-.8A25.16,25.16,0,0,1,210.58,355.82Z" style="fill: rgb(146, 227, 169); mix-blend-mode: multiply; transform-origin: 220.82px 353.805px;" id="el91cktueeo6j" class="animable"></path></g><path d="M213.93,347.17a25.86,25.86,0,0,1-5.36,11.51c-4.55,5.63-10.71,16.61-11,27.05s-12.33,39.33-11,41.47,13.12,5.09,17.67,5.09c2.39,0,6.35.92,7.93-1.41.09-.13-9.35-5-10-5.47s-5.91-4.17-5.74-4.64c0,0,12.34-33.44,18.5-42s10.71-15,12.58-20.35S231.06,348,231.06,348Z" style="fill: none; stroke: rgb(46, 53, 58); stroke-linecap: round; stroke-linejoin: round; transform-origin: 208.764px 389.82px;" id="el7hsdvgb75e7" class="animable"></path><path d="M252.68,349.36a25.87,25.87,0,0,1,5,11.68c1.13,7.15,5.17,19.07,12.76,26.26s21,37.43,23.48,37.86c2.91.52,7.35-3.2,9.51-4.71,2.75-1.92,9.06-5.84,10-9.23,1.13-3.9-2.88-1.94-4.57-.68-2.19,1.63-13.12,3-13.12,3S279.13,380,276.89,369.7s-4-18-6.71-23-5.43-9.57-5.43-9.57Z" style="fill: rgb(255, 255, 255); transform-origin: 283.154px 381.17px;" id="elk3figfdaxxb" class="animable"></path><g style="clip-path: url(&quot;#freepik--clip-path-2--inject-1--inject-81&quot;); transform-origin: 262.875px 347.76px;" id="eliii3hmn8g8m" class="animable"><path d="M270.18,346.73c-2.73-5-5.44-9.57-5.44-9.57l-12.06,12.2a25.34,25.34,0,0,1,4.39,9,99.46,99.46,0,0,0,16-4.25A38.92,38.92,0,0,0,270.18,346.73Z" style="fill: rgb(146, 227, 169); mix-blend-mode: multiply; transform-origin: 262.875px 347.76px;" id="elp987h8r4bqh" class="animable"></path></g><path d="M252.68,349.36a25.87,25.87,0,0,1,5,11.68c1.13,7.15,5.17,19.07,12.76,26.26s21,37.43,23.48,37.86c2.91.52,7.35-3.2,9.51-4.71,2.75-1.92,9.06-5.84,10-9.23,1.13-3.9-2.88-1.94-4.57-.68-2.19,1.63-13.12,3-13.12,3S279.13,380,276.89,369.7s-4-18-6.71-23-5.43-9.57-5.43-9.57Z" style="fill: none; stroke: rgb(46, 53, 58); stroke-linecap: round; stroke-linejoin: round; transform-origin: 283.154px 381.17px;" id="eljo36c743qh8" class="animable"></path><path d="M313.44,411.22c1.13-3.9-2.88-1.94-4.57-.68-2.19,1.63-13.12,3-13.12,3s-1.18-2.6-2.9-6.52a29,29,0,0,1-7,4.09c3.75,7.39,6.86,13.88,8.08,14.09,2.91.52,7.35-3.2,9.51-4.71C306.16,418.53,312.47,414.61,313.44,411.22Z" style="fill: rgb(255, 255, 255); stroke: rgb(46, 53, 58); stroke-linecap: round; stroke-linejoin: round; transform-origin: 299.744px 416.135px;" id="els9rbh4aq63c" class="animable"></path><path d="M214.29,293.73,205,345a70.74,70.74,0,0,0,13.31,6.66c7.32,2.66,20,2,20,2l5-24.95,2,23.29s9.65,1,16.64-.33,18.3-8.66,18.3-8.66l-22-40.92-5-9.65-38.93-1Z" style="fill: rgb(255, 255, 255); transform-origin: 242.625px 322.586px;" id="elm15yyt36tz" class="animable"></path><g style="clip-path: url(&quot;#freepik--clip-path-3--inject-1--inject-81&quot;); transform-origin: 229.14px 307.782px;" id="ellnpda16wa4r" class="animable"><path d="M243.63,323.16c3.38-4.23,4.6-29.1,4.6-29.1l-33.94-2.57v2.24L210.05,317C219.55,320.06,241,326.44,243.63,323.16Z" style="fill: rgb(146, 227, 169); mix-blend-mode: multiply; transform-origin: 229.14px 307.782px;" id="ele6rsvxr1c1u" class="animable"></path></g><path d="M214.29,293.73,205,345a70.74,70.74,0,0,0,13.31,6.66c7.32,2.66,20,2,20,2l5-24.95,2,23.29s9.65,1,16.64-.33,18.3-8.66,18.3-8.66l-22-40.92-5-9.65-38.93-1Z" style="fill: none; stroke: rgb(46, 53, 58); stroke-miterlimit: 10; transform-origin: 242.625px 322.586px;" id="el1gc6p1tq8hxh" class="animable"></path><polygon points="271.68 253.25 290.68 258.25 298.43 235.25 269.43 229.75 262.93 251 271.68 253.25" style="fill: rgb(46, 53, 58); stroke: rgb(46, 53, 58); stroke-linecap: round; stroke-linejoin: round; transform-origin: 280.68px 244px;" id="elw24yy30qksq" class="animable"></polygon><line x1="275.39" y1="242.61" x2="287.47" y2="245.56" style="fill: none; stroke: rgb(255, 255, 255); stroke-linecap: round; stroke-linejoin: round; transform-origin: 281.43px 244.085px;" id="ele7qsc9oqsqp" class="animable"></line><line x1="274.22" y1="245.56" x2="286.3" y2="248.51" style="fill: none; stroke: rgb(255, 255, 255); stroke-linecap: round; stroke-linejoin: round; transform-origin: 280.26px 247.035px;" id="elm3i8fpa1tdj" class="animable"></line><path d="M251.93,254.5s6-3.25,8-6,4.25-7.5,5.25-8.25,6-3.25,7-4,2.5.75.75,2.25-5.5,4.75-5.5,4.75,1,4.5-.25,6a15.13,15.13,0,0,1-2.25,2.25l6.75,1.75s-4.5,3.25-6.5,3.75a46,46,0,0,1-6,.75l-8.25,6.5Z" style="fill: rgb(255, 255, 255); stroke: rgb(46, 53, 58); stroke-linecap: round; stroke-linejoin: round; transform-origin: 262.333px 250.15px;" id="elibozsf96pbt" class="animable"></path><path d="M224.93,199.89s-8,11.65-10,25.29-.66,68.55-.66,68.55,10.64,4.32,19,4.32,20.63.67,21-4-2.33-58.23-6-71.21a95.83,95.83,0,0,0-11-24S228.93,193.23,224.93,199.89Z" style="fill: rgb(46, 53, 58); stroke: rgb(46, 53, 58); stroke-linecap: round; stroke-linejoin: round; transform-origin: 234.067px 247.357px;" id="elzwair6zyk2g" class="animable"></path><polygon points="243.18 210 232.43 278.5 241.93 282 246.18 216.25 243.18 210" style="fill: rgb(255, 255, 255); stroke: rgb(46, 53, 58); stroke-linecap: round; stroke-linejoin: round; transform-origin: 239.305px 246px;" id="elt7kw9ixxtrl" class="animable"></polygon><path d="M219.38,173.35s1.33,6.32,4,9.65,7.65,5,7.65,5l-1.43,7.57,9.32,5.66L242.34,185l1-19.3S220,169.69,219.38,173.35Z" style="fill: rgb(255, 255, 255); stroke: rgb(46, 53, 58); stroke-linecap: round; stroke-linejoin: round; transform-origin: 231.36px 183.465px;" id="el3yq9v7yn7gr" class="animable"></path><path d="M219.38,173.35s1.33,6.32,4,9.65,7.65,5,7.65,5,8-2.33,8.65-7.65c.48-3.84-.24-10.43-.69-13.82C232.2,167.87,219.86,170.7,219.38,173.35Z" style="fill: rgb(46, 53, 58); stroke: rgb(46, 53, 58); stroke-linecap: round; stroke-linejoin: round; transform-origin: 229.609px 177.265px;" id="elnmduq0i7gvi" class="animable"></path><path d="M233,175s-3.33-4-5.32-2.33-1.34,6.33,1,8.66,5.33.33,5.33.33,1.33,4.32,3.66,6.32,10.31,3.33,13,1.33,1.66-9.32,1.66-9.32,4.66-2.33,4.33-4-3.67-3-3.67-4.32a18.49,18.49,0,0,0-.33-3V166l-15.3,3.33S235.35,177,233,175Z" style="fill: rgb(255, 255, 255); transform-origin: 241.587px 178.15px;" id="el7rparcec52y" class="animable"></path><g style="clip-path: url(&quot;#freepik--clip-path-4--inject-1--inject-81&quot;); transform-origin: 244.565px 169.985px;" id="el33q4tgj94qe" class="animable"><g id="el7fhzfft7dj8"><g style="opacity: 0.5; mix-blend-mode: multiply; transform-origin: 244.565px 169.985px;" class="animable"><path d="M237.35,169.36a20.36,20.36,0,0,1-1.86,4.61c6-.27,12.41-.65,18.15-1.15a1.81,1.81,0,0,1-.66-1.13,18.49,18.49,0,0,0-.33-3V166Z" style="fill: rgb(146, 227, 169); mix-blend-mode: multiply; transform-origin: 244.565px 169.985px;" id="el9chgbp4xjbh" class="animable"></path></g></g></g><path d="M233,175s-3.33-4-5.32-2.33-1.34,6.33,1,8.66,5.33.33,5.33.33,1.33,4.32,3.66,6.32,10.31,3.33,13,1.33,1.66-9.32,1.66-9.32,4.66-2.33,4.33-4-3.67-3-3.67-4.32a18.49,18.49,0,0,0-.33-3V166l-15.3,3.33S235.35,177,233,175Z" style="fill: none; stroke: rgb(46, 53, 58); stroke-linecap: round; stroke-linejoin: round; transform-origin: 241.587px 178.15px;" id="eln5hoi286id9" class="animable"></path><path d="M219.38,173.35,252.65,166s-4.66-16.31-10.31-17.64-16.64-2-22.63,4S219.38,173.35,219.38,173.35Z" style="fill: rgb(255, 255, 255); stroke: rgb(46, 53, 58); stroke-linecap: round; stroke-linejoin: round; transform-origin: 234.805px 160.405px;" id="el5ufod0elmyx" class="animable"></path><path d="M241.67,168.69a97.07,97.07,0,0,0,13.31,2c6,.33,19.63-5,16.31-5.33s-18.64.67-18.64.67Z" style="fill: rgb(46, 53, 58); stroke: rgb(46, 53, 58); stroke-linecap: round; stroke-linejoin: round; transform-origin: 256.737px 167.999px;" id="ela4zu2tdoo" class="animable"></path><polygon points="226.27 192.9 223.27 199.56 238.25 208.87 241.24 199.56 226.27 192.9" style="fill: rgb(255, 255, 255); stroke: rgb(46, 53, 58); stroke-linecap: round; stroke-linejoin: round; transform-origin: 232.255px 200.885px;" id="els9zkr58ma7" class="animable"></polygon><path d="M195.43,262.5l53.25,13.75-5.53,38.94a4.56,4.56,0,0,1-5.67,3.77l-48.41-12.58a3.61,3.61,0,0,1-2.62-4.29Z" style="fill: rgb(255, 255, 255); stroke: rgb(46, 53, 58); stroke-linecap: round; stroke-linejoin: round; transform-origin: 217.521px 290.804px;" id="elg2dutxspm5r" class="animable"></path><path d="M195.43,262.5S208,293,215.7,297s33-20.72,33-20.72" style="fill: none; stroke: rgb(46, 53, 58); stroke-linecap: round; stroke-linejoin: round; transform-origin: 222.065px 279.969px;" id="elo6c3t3ljufd" class="animable"></path><path d="M206,249.14s-3.33,7.32-2.33,10,42.26,17.64,42.26,17.64.33,5.65,1.33,7a20.57,20.57,0,0,1,2,4.66s-2,4.66-1,5.66,4-4.66,4-6.32.33-10.65-.66-13-29.29-19.63-29.29-19.63Z" style="fill: rgb(255, 255, 255); stroke: rgb(46, 53, 58); stroke-linecap: round; stroke-linejoin: round; transform-origin: 227.898px 271.679px;" id="elqhn3ueqtdq" class="animable"></path><polyline points="224.27 209.21 204.97 250.13 222.27 255.13 236.25 222.52" style="fill: rgb(46, 53, 58); stroke: rgb(46, 53, 58); stroke-linecap: round; stroke-linejoin: round; transform-origin: 220.61px 232.17px;" id="elndrl67x74l" class="animable"></polyline><line x1="222.27" y1="255.13" x2="235.01" y2="226.56" style="fill: none; stroke: rgb(255, 255, 255); stroke-linecap: round; stroke-linejoin: round; transform-origin: 228.64px 240.845px;" id="eli6tc2zavs2" class="animable"></line><line x1="230.64" y1="237.05" x2="237.05" y2="230.64" style="fill: none; stroke: rgb(255, 255, 255); stroke-linecap: round; stroke-linejoin: round; transform-origin: 233.845px 233.845px;" id="elmqlnof8f4v8" class="animable"></line><path d="M211.64,343.93a48.92,48.92,0,0,0,25.94,5.37" style="fill: none; stroke: rgb(46, 53, 58); stroke-linecap: round; stroke-linejoin: round; transform-origin: 224.61px 346.675px;" id="el2toh9pu762m" class="animable"></path><path d="M207.3,341.31s.77.58,2.2,1.44" style="fill: none; stroke: rgb(46, 53, 58); stroke-linecap: round; stroke-linejoin: round; transform-origin: 208.4px 342.03px;" id="elp8ldite0a49" class="animable"></path><path d="M272.16,341.58a39.82,39.82,0,0,0,3.69-2.27" style="fill: none; stroke: rgb(46, 53, 58); stroke-linecap: round; stroke-linejoin: round; transform-origin: 274.005px 340.445px;" id="elprh9c36c26" class="animable"></path><path d="M246.56,348a58.21,58.21,0,0,0,22.66-4.92" style="fill: none; stroke: rgb(46, 53, 58); stroke-linecap: round; stroke-linejoin: round; transform-origin: 257.89px 345.54px;" id="elx8i7y505wz" class="animable"></path><line x1="243.24" y1="328.67" x2="250.42" y2="316.24" style="fill: none; stroke: rgb(46, 53, 58); stroke-linecap: round; stroke-linejoin: round; transform-origin: 246.83px 322.455px;" id="el3dj7p9r3b0d" class="animable"></line><line x1="243.63" y1="328.02" x2="255.6" y2="314.45" style="fill: none; stroke: rgb(46, 53, 58); stroke-linecap: round; stroke-linejoin: round; transform-origin: 249.615px 321.235px;" id="el1i8ih7pkudh" class="animable"></line><path d="M213.1,322.63l-1,7.38a30.55,30.55,0,0,0,8,4c4.79,1.6,15,1.4,15,1.4l1.4-7s-17.76-2-21.35-5" style="fill: none; stroke: rgb(46, 53, 58); stroke-linecap: round; stroke-linejoin: round; transform-origin: 224.3px 329.024px;" id="eliutirlkcu6" class="animable"></path><path d="M211.91,332.8s-2.8,6.79-1,8.39,14.56,6.38,18,6,5.38-8.78,5.38-8.78" style="fill: none; stroke: rgb(46, 53, 58); stroke-linecap: round; stroke-linejoin: round; transform-origin: 222.298px 340.006px;" id="eloo9nu2blybp" class="animable"></path><path d="M313.44,411.22c1.13-3.9-2.88-1.94-4.57-.68-2.19,1.63-13.12,3-13.12,3l-1.33-3a23.1,23.1,0,0,1-6.78,4.14c2.91,5.78,5.24,10.32,6.26,10.49,2.91.52,7.35-3.2,9.51-4.71C306.16,418.53,312.47,414.61,313.44,411.22Z" style="fill: rgb(46, 53, 58); stroke: rgb(46, 53, 58); stroke-linecap: round; stroke-linejoin: round; transform-origin: 300.639px 417.068px;" id="elbhruiokgfc" class="animable"></path><path d="M305.13,416.68c-4.5,2.34-9.75,5.18-12.78,6.77.66,1,1.19,1.65,1.55,1.71,2.91.52,7.35-3.2,9.51-4.71,2.75-1.92,9.06-5.84,10-9.23.48-1.64,0-2.24-.75-2.29C311,411.71,308.42,415,305.13,416.68Z" style="fill: rgb(255, 255, 255); stroke: rgb(46, 53, 58); stroke-linecap: round; stroke-linejoin: round; transform-origin: 302.976px 417.07px;" id="elt2966etvb0o" class="animable"></path><path d="M202.24,425.41c-.48-.36-5.91-4.17-5.74-4.64,0,0,1.09-2.93,2.76-7.27a31.2,31.2,0,0,1-8.32-2.24c-2.66,8.08-5,14.94-4.34,15.94,1.33,2.14,13.12,5.09,17.67,5.09,2.39,0,6.35.92,7.93-1.41C212.29,430.75,202.85,425.86,202.24,425.41Z" style="fill: rgb(255, 255, 255); stroke: rgb(46, 53, 58); stroke-linecap: round; stroke-linejoin: round; transform-origin: 199.344px 421.865px;" id="ell7rsmuzlxh" class="animable"></path><path d="M212.2,430.88c.09-.13-9.35-5-10-5.47s-5.91-4.17-5.74-4.64l1.06-2.83a42.59,42.59,0,0,1-8.06-2.3c-2,6.06-3.41,10.74-2.9,11.56,1.33,2.14,13.12,5.09,17.67,5.09C206.66,432.29,210.62,433.21,212.2,430.88Z" style="fill: rgb(46, 53, 58); stroke: rgb(46, 53, 58); stroke-linecap: round; stroke-linejoin: round; transform-origin: 199.328px 424.055px;" id="el2xkw6txq772" class="animable"></path><path d="M202.84,430.08c-6.13-.37-12.94-2.89-16.27-4.27a2.46,2.46,0,0,0,0,1.39c1.33,2.14,13.12,5.09,17.67,5.09,2.39,0,6.35.92,7.93-1.41a9.82,9.82,0,0,0-1.41-.83A57.05,57.05,0,0,1,202.84,430.08Z" style="fill: rgb(255, 255, 255); stroke: rgb(46, 53, 58); stroke-linecap: round; stroke-linejoin: round; transform-origin: 199.32px 429.14px;" id="elqeq3qw5tgwq" class="animable"></path><line x1="239.94" y1="168.72" x2="234.6" y2="156.03" style="fill: none; stroke: rgb(0, 0, 0); stroke-linecap: round; stroke-linejoin: round; transform-origin: 237.27px 162.375px;" id="elnb1fuuloal" class="animable"></line><path d="M233.93,153.7s-1.67-3.68-.33-5.35" style="fill: none; stroke: rgb(0, 0, 0); stroke-linecap: round; stroke-linejoin: round; transform-origin: 233.505px 151.025px;" id="elwdnl9jvzlr" class="animable"></path></g><defs>     <filter id="active" height="200%">         <feMorphology in="SourceAlpha" result="DILATED" operator="dilate" radius="2"></feMorphology>                <feFlood flood-color="#32DFEC" flood-opacity="1" result="PINK"></feFlood>        <feComposite in="PINK" in2="DILATED" operator="in" result="OUTLINE"></feComposite>        <feMerge>            <feMergeNode in="OUTLINE"></feMergeNode>            <feMergeNode in="SourceGraphic"></feMergeNode>        </feMerge>    </filter>    <filter id="hover" height="200%">        <feMorphology in="SourceAlpha" result="DILATED" operator="dilate" radius="2"></feMorphology>                <feFlood flood-color="#ff0000" flood-opacity="0.5" result="PINK"></feFlood>        <feComposite in="PINK" in2="DILATED" operator="in" result="OUTLINE"></feComposite>        <feMerge>            <feMergeNode in="OUTLINE"></feMergeNode>            <feMergeNode in="SourceGraphic"></feMergeNode>        </feMerge>            <feColorMatrix type="matrix" values="0   0   0   0   0                0   1   0   0   0                0   0   0   0   0                0   0   0   1   0 "></feColorMatrix>    </filter></defs><defs><clipPath id="freepik--clip-path--inject-1--inject-81"><path d="M213.93,347.17a25.86,25.86,0,0,1-5.36,11.51c-4.55,5.63-10.71,16.61-11,27.05s-12.33,39.33-11,41.47,13.12,5.09,17.67,5.09c2.39,0,6.35.92,7.93-1.41.09-.13-9.35-5-10-5.47s-5.91-4.17-5.74-4.64c0,0,12.34-33.44,18.5-42s10.71-15,12.58-20.35S231.06,348,231.06,348Z" style="fill:#fff;stroke:#2e353a;stroke-linecap:round;stroke-linejoin:round"></path></clipPath><clipPath id="freepik--clip-path-2--inject-1--inject-81"><path d="M252.68,349.36a25.87,25.87,0,0,1,5,11.68c1.13,7.15,5.17,19.07,12.76,26.26s21,37.43,23.48,37.86c2.91.52,7.35-3.2,9.51-4.71,2.75-1.92,9.06-5.84,10-9.23,1.13-3.9-2.88-1.94-4.57-.68-2.19,1.63-13.12,3-13.12,3S279.13,380,276.89,369.7s-4-18-6.71-23-5.43-9.57-5.43-9.57Z" style="fill:#fff;stroke:#2e353a;stroke-linecap:round;stroke-linejoin:round"></path></clipPath><clipPath id="freepik--clip-path-3--inject-1--inject-81"><path d="M214.29,293.73,205,345a70.74,70.74,0,0,0,13.31,6.66c7.32,2.66,20,2,20,2l5-24.95,2,23.29s9.65,1,16.64-.33,18.3-8.66,18.3-8.66l-22-40.92-5-9.65-38.93-1Z" style="fill:#fff;stroke:#2e353a;stroke-miterlimit:10"></path></clipPath><clipPath id="freepik--clip-path-4--inject-1--inject-81"><path d="M233,175s-3.33-4-5.32-2.33-1.34,6.33,1,8.66,5.33.33,5.33.33,1.33,4.32,3.66,6.32,10.31,3.33,13,1.33,1.66-9.32,1.66-9.32,4.66-2.33,4.33-4-3.67-3-3.67-4.32a18.49,18.49,0,0,0-.33-3V166l-15.3,3.33S235.35,177,233,175Z" style="fill:#fff;stroke:#2e353a;stroke-linecap:round;stroke-linejoin:round"></path></clipPath></defs></svg>