<?xml version="1.0" encoding="utf-8"?>
<!-- Generator: Adobe Illustrator 23.0.4, SVG Export Plug-In . SVG Version: 6.00 Build 0)  -->
<svg version="1.1" id="Layer_1" xmlns="http://www.w3.org/2000/svg" xmlns:xlink="http://www.w3.org/1999/xlink" x="0px" y="0px"
	 viewBox="0 0 32 32" style="enable-background:new 0 0 32 32;" xml:space="preserve">
<style type="text/css">
	.st0{fill:#008AD0;}
	.st1{fill:#333333;}
</style>
<g>
	<path class="st1" d="M22.969,31.818c-3.438,0-7.908-2.857-13.918-8.868c-6.69-6.69-9.474-11.471-8.759-15.045
		c0.779-3.897,5.188-6.875,5.375-7c0.397-0.264,0.926-0.212,1.262,0.125L14,8.101c0.391,0.391,0.391,1.023,0,1.414l-3.177,3.177
		c0.251,0.501,1.092,1.809,3.884,4.601l0,0c2.792,2.792,4.1,3.633,4.602,3.884L22.485,18c0.375-0.375,1.039-0.375,1.414,0
		l7.071,7.071c0.337,0.337,0.39,0.865,0.125,1.262c-0.125,0.188-3.104,4.596-7,5.375C23.732,31.781,23.357,31.818,22.969,31.818z
		 M6.125,3.053c-1.139,0.9-3.412,2.944-3.872,5.244c-0.556,2.78,2.207,7.234,8.212,13.239c6.005,6.005,10.456,8.767,13.239,8.212
		c2.299-0.46,4.344-2.733,5.243-3.872l-5.754-5.754l-2.828,2.829c-0.732,0.733-2.096,0.732-7.071-4.243l0,0
		c-2.119-2.118-3.513-3.769-4.145-4.906c-0.537-0.965-0.569-1.694-0.098-2.165l2.829-2.829L6.125,3.053z"/>
</g>
<g>
	<path class="st0" d="M29.964,16.002c-0.521,0-0.959-0.403-0.996-0.93C28.516,8.662,23.341,3.485,16.93,3.033
		c-0.551-0.039-0.966-0.517-0.927-1.068c0.039-0.551,0.521-0.961,1.068-0.927C24.47,1.56,30.441,7.534,30.962,14.932
		c0.039,0.551-0.376,1.029-0.927,1.068C30.011,16.001,29.987,16.002,29.964,16.002z"/>
</g>
<g>
	<path class="st0" d="M23.937,15.992c-0.497,0-0.928-0.37-0.991-0.875c-0.399-3.174-2.896-5.667-6.069-6.063
		c-0.548-0.068-0.937-0.568-0.868-1.116c0.068-0.548,0.572-0.939,1.116-0.868c4.082,0.509,7.292,3.716,7.806,7.797
		c0.069,0.548-0.319,1.048-0.867,1.117C24.021,15.99,23.978,15.992,23.937,15.992z"/>
</g>
<g>
	<path class="st0" d="M5.87,12.146c-0.361,0-0.71-0.196-0.889-0.539C4.176,10.057,4.119,9.165,4.213,8.69
		c0.124-0.617,0.491-1.31,1.093-2.059c0.347-0.429,0.976-0.498,1.406-0.153c0.43,0.346,0.499,0.976,0.153,1.406
		c-0.541,0.673-0.663,1.06-0.69,1.196c0,0,0,0,0,0c0.004,0-0.001,0.485,0.581,1.606c0.254,0.49,0.063,1.094-0.427,1.349
		C6.182,12.11,6.025,12.146,5.87,12.146z"/>
</g>
</svg>
