<?xml version="1.0" encoding="iso-8859-1"?>
<!-- Uploaded to: SVG Repo, www.svgrepo.com, Generator: SVG Repo Mixer Tools -->
<svg height="800px" width="800px" version="1.1" id="Layer_1" xmlns="http://www.w3.org/2000/svg" xmlns:xlink="http://www.w3.org/1999/xlink" 
	 viewBox="0 0 512 512" xml:space="preserve">
<g>
	<g>
		<path style="fill:#576D7E;" d="M185.379,264.828L185.379,264.828c-4.873,0-8.828-3.955-8.828-8.828l0.009-167.724
			c0-4.882,3.955-8.828,8.828-8.828c4.873,0,8.828,3.955,8.828,8.828L194.207,256C194.207,260.882,190.252,264.828,185.379,264.828"
			/>
		<path style="fill:#576D7E;" d="M326.621,264.828c-4.873,0-8.828-3.946-8.828-8.828V88.276c0-4.882,3.955-8.828,8.828-8.828
			s8.828,3.946,8.828,8.828V256C335.448,260.882,331.494,264.828,326.621,264.828"/>
		<path style="fill:#576D7E;" d="M467.862,264.828c-4.873,0-8.828-3.946-8.828-8.828V88.276c0-4.882,3.955-8.828,8.828-8.828
			c4.873,0,8.828,3.946,8.828,8.828V256C476.69,260.882,472.735,264.828,467.862,264.828"/>
		<path style="fill:#576D7E;" d="M467.862,432.552c-4.873,0-8.828-3.946-8.828-8.828V256c0-4.882,3.955-8.828,8.828-8.828
			c4.873,0,8.828,3.946,8.828,8.828v167.724C476.69,428.606,472.735,432.552,467.862,432.552"/>
		<path style="fill:#576D7E;" d="M326.621,432.552c-4.873,0-8.828-3.946-8.828-8.828V256c0-4.882,3.955-8.828,8.828-8.828
			s8.828,3.946,8.828,8.828v167.724C335.448,428.606,331.494,432.552,326.621,432.552"/>
		<path style="fill:#576D7E;" d="M185.379,432.552c-4.873,0-8.828-3.946-8.828-8.828V256c0-4.882,3.955-8.828,8.828-8.828
			c4.873,0,8.828,3.946,8.828,8.828v167.724C194.207,428.606,190.252,432.552,185.379,432.552"/>
		<path style="fill:#576D7E;" d="M467.862,264.828H44.129c-4.873,0-8.828-3.946-8.828-8.828s3.955-8.828,8.828-8.828h423.733
			c4.873,0,8.828,3.946,8.828,8.828S472.735,264.828,467.862,264.828"/>
		<path style="fill:#576D7E;" d="M44.129,264.828L44.129,264.828c-4.873,0-8.828-3.955-8.828-8.828L35.31,88.276
			c0-4.882,3.955-8.828,8.828-8.828c4.873,0,8.828,3.955,8.828,8.828L52.957,256C52.957,260.882,49.002,264.828,44.129,264.828"/>
	</g>
	<g>
		<path style="fill:#34485C;" d="M88.276,44.138c0,24.373-19.765,44.138-44.138,44.138S0,68.511,0,44.138S19.765,0,44.138,0
			S88.276,19.765,88.276,44.138"/>
		<path style="fill:#34485C;" d="M229.517,44.138c0,24.373-19.765,44.138-44.138,44.138s-44.138-19.765-44.138-44.138
			S161.006,0,185.379,0S229.517,19.765,229.517,44.138"/>
		<path style="fill:#34485C;" d="M370.759,44.138c0,24.373-19.765,44.138-44.138,44.138c-24.373,0-44.138-19.765-44.138-44.138
			S302.248,0,326.621,0C350.994,0,370.759,19.765,370.759,44.138"/>
		<path style="fill:#34485C;" d="M512,44.138c0,24.373-19.765,44.138-44.138,44.138s-44.138-19.765-44.138-44.138
			S443.489,0,467.862,0S512,19.765,512,44.138"/>
		<path style="fill:#34485C;" d="M229.517,467.862c0,24.373-19.765,44.138-44.138,44.138s-44.138-19.765-44.138-44.138
			s19.765-44.138,44.138-44.138S229.517,443.489,229.517,467.862"/>
		<path style="fill:#34485C;" d="M370.759,467.862c0,24.373-19.765,44.138-44.138,44.138c-24.373,0-44.138-19.765-44.138-44.138
			s19.765-44.138,44.138-44.138C350.994,423.724,370.759,443.489,370.759,467.862"/>
		<path style="fill:#34485C;" d="M512,467.862C512,492.235,492.235,512,467.862,512s-44.138-19.765-44.138-44.138
			s19.765-44.138,44.138-44.138S512,443.489,512,467.862"/>
	</g>
</g>
</svg>