<?xml version="1.0" encoding="iso-8859-1"?>
<!-- Uploaded to: SVG Repo, www.svgrepo.com, Generator: SVG Repo Mixer Tools -->
<svg fill="#000000" height="800px" width="800px" version="1.1" id="Capa_1" xmlns="http://www.w3.org/2000/svg" xmlns:xlink="http://www.w3.org/1999/xlink" 
	 viewBox="0 0 480 480" xml:space="preserve">
<path id="XMLID_2089_" d="M450,371.266V360c0-35.203-26.122-64.421-60-69.288V210c0-6.156-0.516-12.315-1.537-18.378l4.698-4.802
	c5.604-5.728,8.643-13.295,8.555-21.308c-0.087-8.014-3.29-15.513-9.018-21.116l-28.592-27.975
	c-5.728-5.604-13.325-8.618-21.308-8.555c-4.939,0.055-9.684,1.292-13.909,3.575c-3.642-1.808-7.379-3.407-11.192-4.796
	C331.293,95.638,340,78.815,340,60c0-33.084-26.916-60-60-60h-80c-33.084,0-60,26.916-60,60c0,18.819,8.709,35.644,22.309,46.652
	C120.164,122.072,90,162.581,90,210v80.712C56.122,295.579,30,324.797,30,360v11.266C12.767,375.717,0,391.396,0,410
	c0,38.599,31.402,70,70,70h340c38.598,0,70-31.401,70-70C480,391.396,467.233,375.717,450,371.266z M430,360v10H330v-10
	c0-27.57,22.43-50,50-50S430,332.43,430,360z M310,360v10h-96.064L370,210.492v80.22C336.122,295.579,310,324.797,310,360z
	 M335.91,130.942l0.471-0.425c0.125-0.114,0.246-0.231,0.364-0.352c3.888-3.229,9.684-3.061,13.375,0.552l28.591,27.974
	c1.909,1.868,2.977,4.368,3.006,7.039c0.029,2.671-0.983,5.193-2.852,7.103L185.956,370h-83.942l45.886-46.898
	c0.042-0.043,0.084-0.086,0.125-0.129L335.91,130.942z M160,60c0-22.056,17.944-40,40-40h80c22.056,0,40,17.944,40,40
	s-17.944,40-40,40h-80C177.944,100,160,82.056,160,60z M110,210c0-49.626,40.374-90,90-90h80c11.212,0,22.3,2.093,32.652,6.115
	l-172.642,176.45c-8.953-6.252-19.208-10.303-30.011-11.853V210z M50,360c0-27.57,22.43-50,50-50c9.167,0,18.033,2.491,25.75,7.142
	l-42.892,43.838c-2.527,2.583-4.144,5.724-4.853,9.021H50V360z M410,460H70c-27.57,0-50-22.43-50-50c0-11.028,8.972-20,20-20h400
	c11.028,0,20,8.972,20,20C460,437.57,437.57,460,410,460z"/>
</svg>